<mxfile host="app.diagrams.net" modified="2023-09-28T02:21:50.809Z" agent="Mozilla/5.0 (Windows NT 10.0; Win64; x64) AppleWebKit/537.36 (KHTML, like Gecko) Chrome/116.0.0.0 Safari/537.36 OPR/102.0.0.0" etag="u055ENCAfuIZSARtYwby" version="21.8.2" type="google">
  <diagram name="Page-1" id="Rv0s7GZNz2S2z8i0TRhu">
    <mxGraphModel grid="1" page="1" gridSize="10" guides="1" tooltips="1" connect="1" arrows="1" fold="1" pageScale="1" pageWidth="827" pageHeight="1169" math="0" shadow="0">
      <root>
        <mxCell id="0" />
        <mxCell id="1" parent="0" />
        <mxCell id="wpviFjfJTsvKrZqD9UuO-1" value="Game GUI" style="shape=umlLifeline;perimeter=lifelinePerimeter;whiteSpace=wrap;html=1;container=1;dropTarget=0;collapsible=0;recursiveResize=0;outlineConnect=0;portConstraint=eastwest;newEdgeStyle={&quot;curved&quot;:0,&quot;rounded&quot;:0};" vertex="1" parent="1">
          <mxGeometry x="240" y="70" width="100" height="1510" as="geometry" />
        </mxCell>
        <mxCell id="wpviFjfJTsvKrZqD9UuO-11" value="domino selected" style="edgeStyle=orthogonalEdgeStyle;rounded=0;orthogonalLoop=1;jettySize=auto;html=1;curved=0;" edge="1" parent="wpviFjfJTsvKrZqD9UuO-1" source="wpviFjfJTsvKrZqD9UuO-4">
          <mxGeometry x="0.4384" y="10" relative="1" as="geometry">
            <mxPoint x="130" y="81" as="targetPoint" />
            <Array as="points">
              <mxPoint x="98" y="80" />
              <mxPoint x="140" y="81" />
            </Array>
            <mxPoint as="offset" />
          </mxGeometry>
        </mxCell>
        <mxCell id="wpviFjfJTsvKrZqD9UuO-4" value="" style="html=1;points=[[0,0,0,0,5],[0,1,0,0,-5],[1,0,0,0,5],[1,1,0,0,-5]];perimeter=orthogonalPerimeter;outlineConnect=0;targetShapes=umlLifeline;portConstraint=eastwest;newEdgeStyle={&quot;curved&quot;:0,&quot;rounded&quot;:0};" vertex="1" parent="wpviFjfJTsvKrZqD9UuO-1">
          <mxGeometry x="45" y="60" width="10" height="600" as="geometry" />
        </mxCell>
        <mxCell id="wpviFjfJTsvKrZqD9UuO-90" value="take dominotale" style="edgeStyle=orthogonalEdgeStyle;rounded=0;orthogonalLoop=1;jettySize=auto;html=1;curved=0;" edge="1" parent="wpviFjfJTsvKrZqD9UuO-1" source="wpviFjfJTsvKrZqD9UuO-83">
          <mxGeometry x="0.046" y="10" relative="1" as="geometry">
            <mxPoint x="140" y="740" as="targetPoint" />
            <Array as="points">
              <mxPoint x="103" y="740" />
              <mxPoint x="150" y="741" />
            </Array>
            <mxPoint as="offset" />
          </mxGeometry>
        </mxCell>
        <mxCell id="wpviFjfJTsvKrZqD9UuO-83" value="" style="html=1;points=[[0,0,0,0,5],[0,1,0,0,-5],[1,0,0,0,5],[1,1,0,0,-5]];perimeter=orthogonalPerimeter;outlineConnect=0;targetShapes=umlLifeline;portConstraint=eastwest;newEdgeStyle={&quot;curved&quot;:0,&quot;rounded&quot;:0};" vertex="1" parent="wpviFjfJTsvKrZqD9UuO-1">
          <mxGeometry x="45" y="730" width="10" height="690" as="geometry" />
        </mxCell>
        <mxCell id="wpviFjfJTsvKrZqD9UuO-3" value="" style="shape=umlLifeline;perimeter=lifelinePerimeter;whiteSpace=wrap;html=1;container=1;dropTarget=0;collapsible=0;recursiveResize=0;outlineConnect=0;portConstraint=eastwest;newEdgeStyle={&quot;curved&quot;:0,&quot;rounded&quot;:0};participant=umlActor;" vertex="1" parent="1">
          <mxGeometry x="100" y="70" width="20" height="1500" as="geometry" />
        </mxCell>
        <mxCell id="wpviFjfJTsvKrZqD9UuO-6" value="" style="html=1;points=[[0,0,0,0,5],[0,1,0,0,-5],[1,0,0,0,5],[1,1,0,0,-5]];perimeter=orthogonalPerimeter;outlineConnect=0;targetShapes=umlLifeline;portConstraint=eastwest;newEdgeStyle={&quot;curved&quot;:0,&quot;rounded&quot;:0};" vertex="1" parent="wpviFjfJTsvKrZqD9UuO-3">
          <mxGeometry x="5" y="60" width="10" height="600" as="geometry" />
        </mxCell>
        <mxCell id="wpviFjfJTsvKrZqD9UuO-81" value="" style="html=1;points=[[0,0,0,0,5],[0,1,0,0,-5],[1,0,0,0,5],[1,1,0,0,-5]];perimeter=orthogonalPerimeter;outlineConnect=0;targetShapes=umlLifeline;portConstraint=eastwest;newEdgeStyle={&quot;curved&quot;:0,&quot;rounded&quot;:0};" vertex="1" parent="wpviFjfJTsvKrZqD9UuO-3">
          <mxGeometry x="5" y="730" width="10" height="650" as="geometry" />
        </mxCell>
        <mxCell id="wpviFjfJTsvKrZqD9UuO-5" value="Select domino, and where to put it" style="html=1;verticalAlign=bottom;startArrow=oval;endArrow=block;startSize=8;curved=0;rounded=0;entryX=0;entryY=0;entryDx=0;entryDy=5;" edge="1" parent="1" source="wpviFjfJTsvKrZqD9UuO-6" target="wpviFjfJTsvKrZqD9UuO-4">
          <mxGeometry y="5" relative="1" as="geometry">
            <mxPoint x="215" y="135" as="sourcePoint" />
            <mxPoint as="offset" />
          </mxGeometry>
        </mxCell>
        <mxCell id="wpviFjfJTsvKrZqD9UuO-7" value="Presenter" style="shape=umlLifeline;perimeter=lifelinePerimeter;whiteSpace=wrap;html=1;container=1;dropTarget=0;collapsible=0;recursiveResize=0;outlineConnect=0;portConstraint=eastwest;newEdgeStyle={&quot;curved&quot;:0,&quot;rounded&quot;:0};" vertex="1" parent="1">
          <mxGeometry x="380" y="70" width="100" height="1500" as="geometry" />
        </mxCell>
        <mxCell id="wpviFjfJTsvKrZqD9UuO-8" value="" style="html=1;points=[[0,0,0,0,5],[0,1,0,0,-5],[1,0,0,0,5],[1,1,0,0,-5]];perimeter=orthogonalPerimeter;outlineConnect=0;targetShapes=umlLifeline;portConstraint=eastwest;newEdgeStyle={&quot;curved&quot;:0,&quot;rounded&quot;:0};" vertex="1" parent="wpviFjfJTsvKrZqD9UuO-7">
          <mxGeometry x="45" y="80" width="10" height="510" as="geometry" />
        </mxCell>
        <mxCell id="wpviFjfJTsvKrZqD9UuO-88" value="" style="html=1;points=[[0,0,0,0,5],[0,1,0,0,-5],[1,0,0,0,5],[1,1,0,0,-5]];perimeter=orthogonalPerimeter;outlineConnect=0;targetShapes=umlLifeline;portConstraint=eastwest;newEdgeStyle={&quot;curved&quot;:0,&quot;rounded&quot;:0};" vertex="1" parent="wpviFjfJTsvKrZqD9UuO-7">
          <mxGeometry x="45" y="730" width="10" height="690" as="geometry" />
        </mxCell>
        <mxCell id="wpviFjfJTsvKrZqD9UuO-151" value="pop a dominotale from pool" style="edgeStyle=orthogonalEdgeStyle;rounded=0;orthogonalLoop=1;jettySize=auto;html=1;curved=0;" edge="1" parent="wpviFjfJTsvKrZqD9UuO-7">
          <mxGeometry x="0.0625" y="10" relative="1" as="geometry">
            <mxPoint x="55" y="1030" as="sourcePoint" />
            <mxPoint x="215" y="1030" as="targetPoint" />
            <Array as="points">
              <mxPoint x="180" y="1030" />
              <mxPoint x="180" y="1030" />
            </Array>
            <mxPoint as="offset" />
          </mxGeometry>
        </mxCell>
        <mxCell id="wpviFjfJTsvKrZqD9UuO-152" value="pop a dominotale from pool" style="edgeStyle=orthogonalEdgeStyle;rounded=0;orthogonalLoop=1;jettySize=auto;html=1;curved=0;" edge="1" parent="wpviFjfJTsvKrZqD9UuO-7" target="wpviFjfJTsvKrZqD9UuO-105">
          <mxGeometry x="-0.406" y="10" relative="1" as="geometry">
            <mxPoint x="225" y="1040" as="sourcePoint" />
            <mxPoint x="550" y="1040" as="targetPoint" />
            <Array as="points">
              <mxPoint x="621" y="1041" />
            </Array>
            <mxPoint as="offset" />
          </mxGeometry>
        </mxCell>
        <mxCell id="wpviFjfJTsvKrZqD9UuO-153" style="edgeStyle=orthogonalEdgeStyle;rounded=0;orthogonalLoop=1;jettySize=auto;html=1;curved=0;dashed=1;" edge="1" parent="wpviFjfJTsvKrZqD9UuO-7" source="wpviFjfJTsvKrZqD9UuO-105">
          <mxGeometry relative="1" as="geometry">
            <mxPoint x="550" y="1140" as="sourcePoint" />
            <mxPoint x="225" y="1140" as="targetPoint" />
            <Array as="points">
              <mxPoint x="621" y="1140" />
              <mxPoint x="225" y="1141" />
            </Array>
          </mxGeometry>
        </mxCell>
        <mxCell id="wpviFjfJTsvKrZqD9UuO-182" value="domino" style="edgeLabel;html=1;align=center;verticalAlign=middle;resizable=0;points=[];" connectable="0" vertex="1" parent="wpviFjfJTsvKrZqD9UuO-153">
          <mxGeometry x="-0.7764" y="-2" relative="1" as="geometry">
            <mxPoint x="-307" y="-18" as="offset" />
          </mxGeometry>
        </mxCell>
        <mxCell id="wpviFjfJTsvKrZqD9UuO-154" style="edgeStyle=orthogonalEdgeStyle;rounded=0;orthogonalLoop=1;jettySize=auto;html=1;curved=0;dashed=1;" edge="1" parent="wpviFjfJTsvKrZqD9UuO-7">
          <mxGeometry relative="1" as="geometry">
            <mxPoint x="215" y="1140" as="sourcePoint" />
            <mxPoint x="55" y="1140" as="targetPoint" />
            <Array as="points">
              <mxPoint x="130" y="1140" />
              <mxPoint x="130" y="1140" />
            </Array>
          </mxGeometry>
        </mxCell>
        <mxCell id="wpviFjfJTsvKrZqD9UuO-10" value="observer" style="html=1;verticalAlign=bottom;startArrow=oval;startFill=0;endArrow=none;startSize=8;curved=0;rounded=0;endFill=0;" edge="1" parent="1">
          <mxGeometry x="1" y="11" width="60" relative="1" as="geometry">
            <mxPoint x="380" y="150" as="sourcePoint" />
            <mxPoint x="425" y="150" as="targetPoint" />
            <mxPoint x="5" y="1" as="offset" />
          </mxGeometry>
        </mxCell>
        <mxCell id="wpviFjfJTsvKrZqD9UuO-12" value="Board" style="shape=umlLifeline;perimeter=lifelinePerimeter;whiteSpace=wrap;html=1;container=1;dropTarget=0;collapsible=0;recursiveResize=0;outlineConnect=0;portConstraint=eastwest;newEdgeStyle={&quot;curved&quot;:0,&quot;rounded&quot;:0};" vertex="1" parent="1">
          <mxGeometry x="720" y="75" width="100" height="1485" as="geometry" />
        </mxCell>
        <mxCell id="wpviFjfJTsvKrZqD9UuO-13" value="" style="html=1;points=[[0,0,0,0,5],[0,1,0,0,-5],[1,0,0,0,5],[1,1,0,0,-5]];perimeter=orthogonalPerimeter;outlineConnect=0;targetShapes=umlLifeline;portConstraint=eastwest;newEdgeStyle={&quot;curved&quot;:0,&quot;rounded&quot;:0};" vertex="1" parent="wpviFjfJTsvKrZqD9UuO-12">
          <mxGeometry x="45" y="70" width="10" height="420" as="geometry" />
        </mxCell>
        <mxCell id="wpviFjfJTsvKrZqD9UuO-14" value="validate domino numbers" style="edgeStyle=orthogonalEdgeStyle;rounded=0;orthogonalLoop=1;jettySize=auto;html=1;curved=0;" edge="1" parent="1" source="wpviFjfJTsvKrZqD9UuO-8" target="wpviFjfJTsvKrZqD9UuO-48">
          <mxGeometry x="0.1875" y="10" relative="1" as="geometry">
            <Array as="points">
              <mxPoint x="520" y="160" />
              <mxPoint x="520" y="160" />
            </Array>
            <mxPoint as="offset" />
          </mxGeometry>
        </mxCell>
        <mxCell id="wpviFjfJTsvKrZqD9UuO-15" value="alt" style="shape=umlFrame;whiteSpace=wrap;html=1;pointerEvents=0;" vertex="1" parent="1">
          <mxGeometry x="20" y="200" width="800" height="540" as="geometry" />
        </mxCell>
        <mxCell id="wpviFjfJTsvKrZqD9UuO-17" value="" style="endArrow=none;html=1;rounded=0;exitX=0;exitY=0.362;exitDx=0;exitDy=0;exitPerimeter=0;entryX=0.999;entryY=0.362;entryDx=0;entryDy=0;entryPerimeter=0;" edge="1" parent="1" source="wpviFjfJTsvKrZqD9UuO-15" target="wpviFjfJTsvKrZqD9UuO-15">
          <mxGeometry width="50" height="50" relative="1" as="geometry">
            <mxPoint x="19.99999999999995" y="280" as="sourcePoint" />
            <mxPoint x="608.7000000000002" y="286" as="targetPoint" />
          </mxGeometry>
        </mxCell>
        <mxCell id="wpviFjfJTsvKrZqD9UuO-18" value="[domino number its not&amp;nbsp; ok]" style="text;align=center;fontStyle=1;verticalAlign=middle;spacingLeft=3;spacingRight=3;strokeColor=none;rotatable=0;points=[[0,0.5],[1,0.5]];portConstraint=eastwest;html=1;" vertex="1" parent="1">
          <mxGeometry x="180" y="207" width="30" height="26" as="geometry" />
        </mxCell>
        <mxCell id="wpviFjfJTsvKrZqD9UuO-21" value="" style="html=1;points=[[0,0,0,0,5],[0,1,0,0,-5],[1,0,0,0,5],[1,1,0,0,-5]];perimeter=orthogonalPerimeter;outlineConnect=0;targetShapes=umlLifeline;portConstraint=eastwest;newEdgeStyle={&quot;curved&quot;:0,&quot;rounded&quot;:0};" vertex="1" parent="1">
          <mxGeometry x="770" y="185" width="10" height="40" as="geometry" />
        </mxCell>
        <mxCell id="wpviFjfJTsvKrZqD9UuO-22" value="validate domino" style="html=1;align=left;spacingLeft=2;endArrow=block;rounded=0;edgeStyle=orthogonalEdgeStyle;curved=0;rounded=0;" edge="1" parent="1" target="wpviFjfJTsvKrZqD9UuO-21">
          <mxGeometry relative="1" as="geometry">
            <mxPoint x="775" y="165" as="sourcePoint" />
            <Array as="points">
              <mxPoint x="805" y="195" />
            </Array>
          </mxGeometry>
        </mxCell>
        <mxCell id="wpviFjfJTsvKrZqD9UuO-23" value="" style="html=1;align=left;spacingLeft=2;endArrow=block;rounded=0;edgeStyle=orthogonalEdgeStyle;curved=0;rounded=0;exitX=1;exitY=1;exitDx=0;exitDy=-5;exitPerimeter=0;dashed=1;" edge="1" parent="1" source="wpviFjfJTsvKrZqD9UuO-21" target="wpviFjfJTsvKrZqD9UuO-13">
          <mxGeometry relative="1" as="geometry">
            <mxPoint x="810" y="225" as="sourcePoint" />
            <Array as="points">
              <mxPoint x="790" y="220" />
              <mxPoint x="790" y="235" />
            </Array>
            <mxPoint x="815" y="255" as="targetPoint" />
          </mxGeometry>
        </mxCell>
        <mxCell id="wpviFjfJTsvKrZqD9UuO-24" value="its not ok" style="edgeStyle=orthogonalEdgeStyle;rounded=0;orthogonalLoop=1;jettySize=auto;html=1;curved=0;dashed=1;" edge="1" parent="1" source="wpviFjfJTsvKrZqD9UuO-13" target="wpviFjfJTsvKrZqD9UuO-48">
          <mxGeometry y="-10" relative="1" as="geometry">
            <Array as="points">
              <mxPoint x="690" y="240" />
              <mxPoint x="690" y="240" />
            </Array>
            <mxPoint as="offset" />
          </mxGeometry>
        </mxCell>
        <mxCell id="wpviFjfJTsvKrZqD9UuO-25" value="its not ok" style="edgeStyle=orthogonalEdgeStyle;rounded=0;orthogonalLoop=1;jettySize=auto;html=1;curved=0;dashed=1;" edge="1" parent="1" source="wpviFjfJTsvKrZqD9UuO-8" target="wpviFjfJTsvKrZqD9UuO-4">
          <mxGeometry y="-10" relative="1" as="geometry">
            <Array as="points">
              <mxPoint x="360" y="250" />
              <mxPoint x="360" y="250" />
            </Array>
            <mxPoint as="offset" />
          </mxGeometry>
        </mxCell>
        <mxCell id="wpviFjfJTsvKrZqD9UuO-26" value="its not ok" style="edgeStyle=orthogonalEdgeStyle;rounded=0;orthogonalLoop=1;jettySize=auto;html=1;curved=0;dashed=1;" edge="1" parent="1" source="wpviFjfJTsvKrZqD9UuO-4" target="wpviFjfJTsvKrZqD9UuO-6">
          <mxGeometry y="-10" relative="1" as="geometry">
            <Array as="points">
              <mxPoint x="190" y="260" />
              <mxPoint x="190" y="260" />
            </Array>
            <mxPoint as="offset" />
          </mxGeometry>
        </mxCell>
        <mxCell id="wpviFjfJTsvKrZqD9UuO-29" value="DominoTale" style="shape=umlLifeline;perimeter=lifelinePerimeter;whiteSpace=wrap;html=1;container=1;dropTarget=0;collapsible=0;recursiveResize=0;outlineConnect=0;portConstraint=eastwest;newEdgeStyle={&quot;curved&quot;:0,&quot;rounded&quot;:0};" vertex="1" parent="1">
          <mxGeometry x="1020" y="75" width="100" height="1485" as="geometry" />
        </mxCell>
        <mxCell id="wpviFjfJTsvKrZqD9UuO-30" value="" style="html=1;points=[[0,0,0,0,5],[0,1,0,0,-5],[1,0,0,0,5],[1,1,0,0,-5]];perimeter=orthogonalPerimeter;outlineConnect=0;targetShapes=umlLifeline;portConstraint=eastwest;newEdgeStyle={&quot;curved&quot;:0,&quot;rounded&quot;:0};" vertex="1" parent="wpviFjfJTsvKrZqD9UuO-29">
          <mxGeometry x="45" y="375" width="10" height="110" as="geometry" />
        </mxCell>
        <mxCell id="wpviFjfJTsvKrZqD9UuO-34" value="" style="html=1;points=[[0,0,0,0,5],[0,1,0,0,-5],[1,0,0,0,5],[1,1,0,0,-5]];perimeter=orthogonalPerimeter;outlineConnect=0;targetShapes=umlLifeline;portConstraint=eastwest;newEdgeStyle={&quot;curved&quot;:0,&quot;rounded&quot;:0};" vertex="1" parent="wpviFjfJTsvKrZqD9UuO-29">
          <mxGeometry x="49" y="410" width="10" height="40" as="geometry" />
        </mxCell>
        <mxCell id="wpviFjfJTsvKrZqD9UuO-35" value="paint dominotale" style="html=1;align=left;spacingLeft=2;endArrow=block;rounded=0;edgeStyle=orthogonalEdgeStyle;curved=0;rounded=0;" edge="1" parent="wpviFjfJTsvKrZqD9UuO-29" target="wpviFjfJTsvKrZqD9UuO-34">
          <mxGeometry relative="1" as="geometry">
            <mxPoint x="54" y="390" as="sourcePoint" />
            <Array as="points">
              <mxPoint x="84" y="420" />
            </Array>
          </mxGeometry>
        </mxCell>
        <mxCell id="wpviFjfJTsvKrZqD9UuO-69" value="" style="html=1;points=[[0,0,0,0,5],[0,1,0,0,-5],[1,0,0,0,5],[1,1,0,0,-5]];perimeter=orthogonalPerimeter;outlineConnect=0;targetShapes=umlLifeline;portConstraint=eastwest;newEdgeStyle={&quot;curved&quot;:0,&quot;rounded&quot;:0};" vertex="1" parent="wpviFjfJTsvKrZqD9UuO-29">
          <mxGeometry x="45" y="245" width="10" height="110" as="geometry" />
        </mxCell>
        <mxCell id="wpviFjfJTsvKrZqD9UuO-70" value="" style="html=1;points=[[0,0,0,0,5],[0,1,0,0,-5],[1,0,0,0,5],[1,1,0,0,-5]];perimeter=orthogonalPerimeter;outlineConnect=0;targetShapes=umlLifeline;portConstraint=eastwest;newEdgeStyle={&quot;curved&quot;:0,&quot;rounded&quot;:0};" vertex="1" parent="wpviFjfJTsvKrZqD9UuO-29">
          <mxGeometry x="49" y="280" width="10" height="40" as="geometry" />
        </mxCell>
        <mxCell id="wpviFjfJTsvKrZqD9UuO-71" value="remove dominotale" style="html=1;align=left;spacingLeft=2;endArrow=block;rounded=0;edgeStyle=orthogonalEdgeStyle;curved=0;rounded=0;" edge="1" parent="wpviFjfJTsvKrZqD9UuO-29" target="wpviFjfJTsvKrZqD9UuO-70">
          <mxGeometry relative="1" as="geometry">
            <mxPoint x="54" y="260" as="sourcePoint" />
            <Array as="points">
              <mxPoint x="84" y="290" />
            </Array>
          </mxGeometry>
        </mxCell>
        <mxCell id="wpviFjfJTsvKrZqD9UuO-72" value="" style="html=1;align=left;spacingLeft=2;endArrow=block;rounded=0;edgeStyle=orthogonalEdgeStyle;curved=0;rounded=0;exitX=1;exitY=1;exitDx=0;exitDy=-5;exitPerimeter=0;dashed=1;" edge="1" parent="wpviFjfJTsvKrZqD9UuO-29">
          <mxGeometry relative="1" as="geometry">
            <mxPoint x="59" y="315" as="sourcePoint" />
            <Array as="points">
              <mxPoint x="69" y="315" />
              <mxPoint x="69" y="330" />
            </Array>
            <mxPoint x="54" y="330" as="targetPoint" />
          </mxGeometry>
        </mxCell>
        <mxCell id="wpviFjfJTsvKrZqD9UuO-32" value="Player" style="shape=umlLifeline;perimeter=lifelinePerimeter;whiteSpace=wrap;html=1;container=1;dropTarget=0;collapsible=0;recursiveResize=0;outlineConnect=0;portConstraint=eastwest;newEdgeStyle={&quot;curved&quot;:0,&quot;rounded&quot;:0};" vertex="1" parent="1">
          <mxGeometry x="880" y="75" width="100" height="1485" as="geometry" />
        </mxCell>
        <mxCell id="wpviFjfJTsvKrZqD9UuO-39" value="" style="html=1;points=[[0,0,0,0,5],[0,1,0,0,-5],[1,0,0,0,5],[1,1,0,0,-5]];perimeter=orthogonalPerimeter;outlineConnect=0;targetShapes=umlLifeline;portConstraint=eastwest;newEdgeStyle={&quot;curved&quot;:0,&quot;rounded&quot;:0};" vertex="1" parent="wpviFjfJTsvKrZqD9UuO-32">
          <mxGeometry x="50" y="235" width="10" height="130" as="geometry" />
        </mxCell>
        <mxCell id="wpviFjfJTsvKrZqD9UuO-42" value="remove dominotale" style="html=1;align=left;spacingLeft=2;endArrow=block;rounded=0;edgeStyle=orthogonalEdgeStyle;curved=0;rounded=0;" edge="1" parent="wpviFjfJTsvKrZqD9UuO-32" target="wpviFjfJTsvKrZqD9UuO-69">
          <mxGeometry x="-0.52" y="10" relative="1" as="geometry">
            <mxPoint x="60" y="245" as="sourcePoint" />
            <Array as="points">
              <mxPoint x="140" y="245" />
              <mxPoint x="140" y="245" />
            </Array>
            <mxPoint x="64.99999999999977" y="275" as="targetPoint" />
            <mxPoint as="offset" />
          </mxGeometry>
        </mxCell>
        <mxCell id="wpviFjfJTsvKrZqD9UuO-37" value="" style="html=1;align=left;spacingLeft=2;endArrow=block;rounded=0;edgeStyle=orthogonalEdgeStyle;curved=0;rounded=0;exitX=1;exitY=1;exitDx=0;exitDy=-5;exitPerimeter=0;dashed=1;" edge="1" parent="1">
          <mxGeometry relative="1" as="geometry">
            <mxPoint x="1079" y="520" as="sourcePoint" />
            <Array as="points">
              <mxPoint x="1089" y="520" />
              <mxPoint x="1089" y="535" />
            </Array>
            <mxPoint x="1074" y="535" as="targetPoint" />
          </mxGeometry>
        </mxCell>
        <mxCell id="wpviFjfJTsvKrZqD9UuO-40" value="remove player´s domino" style="edgeStyle=orthogonalEdgeStyle;rounded=0;orthogonalLoop=1;jettySize=auto;html=1;curved=0;" edge="1" parent="1" source="wpviFjfJTsvKrZqD9UuO-8" target="wpviFjfJTsvKrZqD9UuO-48">
          <mxGeometry x="0.0625" relative="1" as="geometry">
            <Array as="points">
              <mxPoint x="560" y="300" />
              <mxPoint x="560" y="300" />
            </Array>
            <mxPoint as="offset" />
          </mxGeometry>
        </mxCell>
        <mxCell id="wpviFjfJTsvKrZqD9UuO-47" value="Model" style="shape=umlLifeline;perimeter=lifelinePerimeter;whiteSpace=wrap;html=1;container=1;dropTarget=0;collapsible=0;recursiveResize=0;outlineConnect=0;portConstraint=eastwest;newEdgeStyle={&quot;curved&quot;:0,&quot;rounded&quot;:0};" vertex="1" parent="1">
          <mxGeometry x="550" y="70" width="100" height="1500" as="geometry" />
        </mxCell>
        <mxCell id="wpviFjfJTsvKrZqD9UuO-48" value="" style="html=1;points=[[0,0,0,0,5],[0,1,0,0,-5],[1,0,0,0,5],[1,1,0,0,-5]];perimeter=orthogonalPerimeter;outlineConnect=0;targetShapes=umlLifeline;portConstraint=eastwest;newEdgeStyle={&quot;curved&quot;:0,&quot;rounded&quot;:0};" vertex="1" parent="wpviFjfJTsvKrZqD9UuO-47">
          <mxGeometry x="45" y="70" width="10" height="510" as="geometry" />
        </mxCell>
        <mxCell id="wpviFjfJTsvKrZqD9UuO-102" value="" style="html=1;points=[[0,0,0,0,5],[0,1,0,0,-5],[1,0,0,0,5],[1,1,0,0,-5]];perimeter=orthogonalPerimeter;outlineConnect=0;targetShapes=umlLifeline;portConstraint=eastwest;newEdgeStyle={&quot;curved&quot;:0,&quot;rounded&quot;:0};" vertex="1" parent="wpviFjfJTsvKrZqD9UuO-47">
          <mxGeometry x="45" y="730" width="10" height="680" as="geometry" />
        </mxCell>
        <mxCell id="wpviFjfJTsvKrZqD9UuO-49" value="its not ok" style="edgeStyle=orthogonalEdgeStyle;rounded=0;orthogonalLoop=1;jettySize=auto;html=1;curved=0;dashed=1;" edge="1" parent="1" source="wpviFjfJTsvKrZqD9UuO-48" target="wpviFjfJTsvKrZqD9UuO-8">
          <mxGeometry x="0.0625" y="-10" relative="1" as="geometry">
            <Array as="points">
              <mxPoint x="510" y="250" />
              <mxPoint x="510" y="250" />
            </Array>
            <mxPoint as="offset" />
          </mxGeometry>
        </mxCell>
        <mxCell id="wpviFjfJTsvKrZqD9UuO-51" value="remove player´s domino" style="edgeStyle=orthogonalEdgeStyle;rounded=0;orthogonalLoop=1;jettySize=auto;html=1;curved=0;" edge="1" parent="1" source="wpviFjfJTsvKrZqD9UuO-48" target="wpviFjfJTsvKrZqD9UuO-39">
          <mxGeometry x="-0.4063" y="10" relative="1" as="geometry">
            <Array as="points">
              <mxPoint x="760" y="310" />
              <mxPoint x="760" y="310" />
            </Array>
            <mxPoint as="offset" />
          </mxGeometry>
        </mxCell>
        <mxCell id="wpviFjfJTsvKrZqD9UuO-55" style="edgeStyle=orthogonalEdgeStyle;rounded=0;orthogonalLoop=1;jettySize=auto;html=1;curved=0;dashed=1;" edge="1" parent="1" source="wpviFjfJTsvKrZqD9UuO-39" target="wpviFjfJTsvKrZqD9UuO-48">
          <mxGeometry relative="1" as="geometry">
            <Array as="points">
              <mxPoint x="760" y="410" />
              <mxPoint x="760" y="410" />
            </Array>
          </mxGeometry>
        </mxCell>
        <mxCell id="wpviFjfJTsvKrZqD9UuO-56" style="edgeStyle=orthogonalEdgeStyle;rounded=0;orthogonalLoop=1;jettySize=auto;html=1;curved=0;dashed=1;" edge="1" parent="1" source="wpviFjfJTsvKrZqD9UuO-48" target="wpviFjfJTsvKrZqD9UuO-8">
          <mxGeometry relative="1" as="geometry">
            <Array as="points">
              <mxPoint x="510" y="410" />
              <mxPoint x="510" y="410" />
            </Array>
          </mxGeometry>
        </mxCell>
        <mxCell id="wpviFjfJTsvKrZqD9UuO-58" value="paint domino on board" style="edgeStyle=orthogonalEdgeStyle;rounded=0;orthogonalLoop=1;jettySize=auto;html=1;curved=0;" edge="1" parent="1" source="wpviFjfJTsvKrZqD9UuO-8" target="wpviFjfJTsvKrZqD9UuO-48">
          <mxGeometry x="0.0625" y="10" relative="1" as="geometry">
            <Array as="points">
              <mxPoint x="510" y="430" />
              <mxPoint x="510" y="430" />
            </Array>
            <mxPoint as="offset" />
          </mxGeometry>
        </mxCell>
        <mxCell id="wpviFjfJTsvKrZqD9UuO-59" value="paint domino on board" style="edgeStyle=orthogonalEdgeStyle;rounded=0;orthogonalLoop=1;jettySize=auto;html=1;curved=0;" edge="1" parent="1" source="wpviFjfJTsvKrZqD9UuO-48" target="wpviFjfJTsvKrZqD9UuO-13">
          <mxGeometry x="0.0625" y="10" relative="1" as="geometry">
            <Array as="points">
              <mxPoint x="680" y="440" />
              <mxPoint x="680" y="440" />
            </Array>
            <mxPoint as="offset" />
          </mxGeometry>
        </mxCell>
        <mxCell id="wpviFjfJTsvKrZqD9UuO-73" style="edgeStyle=orthogonalEdgeStyle;rounded=0;orthogonalLoop=1;jettySize=auto;html=1;curved=0;dashed=1;" edge="1" parent="1" source="wpviFjfJTsvKrZqD9UuO-69" target="wpviFjfJTsvKrZqD9UuO-39">
          <mxGeometry relative="1" as="geometry">
            <Array as="points">
              <mxPoint x="990" y="410" />
              <mxPoint x="990" y="410" />
            </Array>
          </mxGeometry>
        </mxCell>
        <mxCell id="wpviFjfJTsvKrZqD9UuO-74" value="paint dominotale" style="edgeStyle=orthogonalEdgeStyle;rounded=0;orthogonalLoop=1;jettySize=auto;html=1;curved=0;" edge="1" parent="1" source="wpviFjfJTsvKrZqD9UuO-13" target="wpviFjfJTsvKrZqD9UuO-30">
          <mxGeometry x="-0.3448" y="10" relative="1" as="geometry">
            <Array as="points">
              <mxPoint x="920" y="450" />
              <mxPoint x="920" y="450" />
            </Array>
            <mxPoint as="offset" />
          </mxGeometry>
        </mxCell>
        <mxCell id="wpviFjfJTsvKrZqD9UuO-76" style="edgeStyle=orthogonalEdgeStyle;rounded=0;orthogonalLoop=1;jettySize=auto;html=1;curved=0;dashed=1;" edge="1" parent="1" source="wpviFjfJTsvKrZqD9UuO-30" target="wpviFjfJTsvKrZqD9UuO-13">
          <mxGeometry relative="1" as="geometry">
            <Array as="points">
              <mxPoint x="920" y="540" />
              <mxPoint x="920" y="540" />
            </Array>
          </mxGeometry>
        </mxCell>
        <mxCell id="wpviFjfJTsvKrZqD9UuO-77" style="edgeStyle=orthogonalEdgeStyle;rounded=0;orthogonalLoop=1;jettySize=auto;html=1;curved=0;dashed=1;" edge="1" parent="1" source="wpviFjfJTsvKrZqD9UuO-13" target="wpviFjfJTsvKrZqD9UuO-48">
          <mxGeometry relative="1" as="geometry">
            <Array as="points">
              <mxPoint x="660" y="550" />
              <mxPoint x="660" y="550" />
            </Array>
          </mxGeometry>
        </mxCell>
        <mxCell id="wpviFjfJTsvKrZqD9UuO-78" style="edgeStyle=orthogonalEdgeStyle;rounded=0;orthogonalLoop=1;jettySize=auto;html=1;curved=0;dashed=1;" edge="1" parent="1" source="wpviFjfJTsvKrZqD9UuO-48" target="wpviFjfJTsvKrZqD9UuO-8">
          <mxGeometry relative="1" as="geometry">
            <Array as="points">
              <mxPoint x="500" y="650" />
              <mxPoint x="500" y="650" />
            </Array>
          </mxGeometry>
        </mxCell>
        <mxCell id="wpviFjfJTsvKrZqD9UuO-79" style="edgeStyle=orthogonalEdgeStyle;rounded=0;orthogonalLoop=1;jettySize=auto;html=1;curved=0;dashed=1;" edge="1" parent="1" source="wpviFjfJTsvKrZqD9UuO-8" target="wpviFjfJTsvKrZqD9UuO-4">
          <mxGeometry relative="1" as="geometry">
            <Array as="points">
              <mxPoint x="360" y="650" />
              <mxPoint x="360" y="650" />
            </Array>
          </mxGeometry>
        </mxCell>
        <mxCell id="wpviFjfJTsvKrZqD9UuO-80" style="edgeStyle=orthogonalEdgeStyle;rounded=0;orthogonalLoop=1;jettySize=auto;html=1;curved=0;dashed=1;" edge="1" parent="1" source="wpviFjfJTsvKrZqD9UuO-4" target="wpviFjfJTsvKrZqD9UuO-6">
          <mxGeometry relative="1" as="geometry">
            <Array as="points">
              <mxPoint x="150" y="730" />
              <mxPoint x="150" y="730" />
            </Array>
          </mxGeometry>
        </mxCell>
        <mxCell id="wpviFjfJTsvKrZqD9UuO-87" value="take a pool´s dominotale" style="html=1;verticalAlign=bottom;startArrow=oval;startFill=1;endArrow=block;startSize=8;curved=0;rounded=0;" edge="1" parent="1" target="wpviFjfJTsvKrZqD9UuO-83">
          <mxGeometry width="60" relative="1" as="geometry">
            <mxPoint x="120" y="810" as="sourcePoint" />
            <mxPoint x="180" y="810" as="targetPoint" />
          </mxGeometry>
        </mxCell>
        <mxCell id="wpviFjfJTsvKrZqD9UuO-89" value="observer" style="html=1;verticalAlign=bottom;startArrow=oval;startFill=0;endArrow=block;startSize=8;curved=0;rounded=0;" edge="1" parent="1" target="wpviFjfJTsvKrZqD9UuO-88">
          <mxGeometry x="1" y="21" width="60" relative="1" as="geometry">
            <mxPoint x="390" y="810" as="sourcePoint" />
            <mxPoint x="420" y="810" as="targetPoint" />
            <mxPoint x="5" y="1" as="offset" />
          </mxGeometry>
        </mxCell>
        <mxCell id="wpviFjfJTsvKrZqD9UuO-99" value="Pool" style="shape=umlLifeline;perimeter=lifelinePerimeter;whiteSpace=wrap;html=1;container=1;dropTarget=0;collapsible=0;recursiveResize=0;outlineConnect=0;portConstraint=eastwest;newEdgeStyle={&quot;curved&quot;:0,&quot;rounded&quot;:0};" vertex="1" parent="1">
          <mxGeometry x="1350" y="75" width="100" height="1485" as="geometry" />
        </mxCell>
        <mxCell id="wpviFjfJTsvKrZqD9UuO-105" value="" style="html=1;points=[[0,0,0,0,5],[0,1,0,0,-5],[1,0,0,0,5],[1,1,0,0,-5]];perimeter=orthogonalPerimeter;outlineConnect=0;targetShapes=umlLifeline;portConstraint=eastwest;newEdgeStyle={&quot;curved&quot;:0,&quot;rounded&quot;:0};" vertex="1" parent="wpviFjfJTsvKrZqD9UuO-99">
          <mxGeometry x="45" y="715" width="10" height="515" as="geometry" />
        </mxCell>
        <mxCell id="wpviFjfJTsvKrZqD9UuO-121" value="" style="html=1;points=[[0,0,0,0,5],[0,1,0,0,-5],[1,0,0,0,5],[1,1,0,0,-5]];perimeter=orthogonalPerimeter;outlineConnect=0;targetShapes=umlLifeline;portConstraint=eastwest;newEdgeStyle={&quot;curved&quot;:0,&quot;rounded&quot;:0};" vertex="1" parent="wpviFjfJTsvKrZqD9UuO-99">
          <mxGeometry x="50" y="775" width="10" height="45" as="geometry" />
        </mxCell>
        <mxCell id="wpviFjfJTsvKrZqD9UuO-122" value="hasDominos?" style="html=1;align=left;spacingLeft=2;endArrow=block;rounded=0;edgeStyle=orthogonalEdgeStyle;curved=0;rounded=0;" edge="1" parent="wpviFjfJTsvKrZqD9UuO-99" target="wpviFjfJTsvKrZqD9UuO-121">
          <mxGeometry x="-0.0045" relative="1" as="geometry">
            <mxPoint x="55" y="755" as="sourcePoint" />
            <Array as="points">
              <mxPoint x="85" y="785" />
            </Array>
            <mxPoint as="offset" />
          </mxGeometry>
        </mxCell>
        <mxCell id="wpviFjfJTsvKrZqD9UuO-100" style="edgeStyle=orthogonalEdgeStyle;rounded=0;orthogonalLoop=1;jettySize=auto;html=1;curved=0;" edge="1" parent="1" source="wpviFjfJTsvKrZqD9UuO-48" target="wpviFjfJTsvKrZqD9UuO-13">
          <mxGeometry relative="1" as="geometry">
            <Array as="points">
              <mxPoint x="690" y="160" />
              <mxPoint x="690" y="160" />
            </Array>
          </mxGeometry>
        </mxCell>
        <mxCell id="wpviFjfJTsvKrZqD9UuO-101" value="validate domino numbers" style="edgeLabel;html=1;align=center;verticalAlign=middle;resizable=0;points=[];" connectable="0" vertex="1" parent="wpviFjfJTsvKrZqD9UuO-100">
          <mxGeometry x="0.1646" relative="1" as="geometry">
            <mxPoint x="-8" y="-10" as="offset" />
          </mxGeometry>
        </mxCell>
        <mxCell id="wpviFjfJTsvKrZqD9UuO-103" style="edgeStyle=orthogonalEdgeStyle;rounded=0;orthogonalLoop=1;jettySize=auto;html=1;curved=0;" edge="1" parent="1" source="wpviFjfJTsvKrZqD9UuO-88" target="wpviFjfJTsvKrZqD9UuO-102">
          <mxGeometry relative="1" as="geometry">
            <Array as="points">
              <mxPoint x="520" y="820" />
              <mxPoint x="520" y="820" />
            </Array>
          </mxGeometry>
        </mxCell>
        <mxCell id="wpviFjfJTsvKrZqD9UuO-104" value="does pool have dominoes?" style="edgeLabel;html=1;align=center;verticalAlign=middle;resizable=0;points=[];" connectable="0" vertex="1" parent="wpviFjfJTsvKrZqD9UuO-103">
          <mxGeometry x="-0.0776" y="3" relative="1" as="geometry">
            <mxPoint y="-7" as="offset" />
          </mxGeometry>
        </mxCell>
        <mxCell id="wpviFjfJTsvKrZqD9UuO-106" value="hasDominos?" style="edgeStyle=orthogonalEdgeStyle;rounded=0;orthogonalLoop=1;jettySize=auto;html=1;curved=0;" edge="1" parent="1" source="wpviFjfJTsvKrZqD9UuO-102" target="wpviFjfJTsvKrZqD9UuO-105">
          <mxGeometry x="0.1373" y="10" relative="1" as="geometry">
            <Array as="points">
              <mxPoint x="780" y="830" />
              <mxPoint x="780" y="830" />
            </Array>
            <mxPoint as="offset" />
          </mxGeometry>
        </mxCell>
        <mxCell id="wpviFjfJTsvKrZqD9UuO-107" value="alt" style="shape=umlFrame;whiteSpace=wrap;html=1;pointerEvents=0;" vertex="1" parent="1">
          <mxGeometry x="20" y="890" width="1400" height="570" as="geometry" />
        </mxCell>
        <mxCell id="wpviFjfJTsvKrZqD9UuO-109" value="[doesnt have]" style="text;align=center;fontStyle=1;verticalAlign=middle;spacingLeft=3;spacingRight=3;strokeColor=none;rotatable=0;points=[[0,0.5],[1,0.5]];portConstraint=eastwest;html=1;" vertex="1" parent="1">
          <mxGeometry x="140" y="890" width="80" height="26" as="geometry" />
        </mxCell>
        <mxCell id="wpviFjfJTsvKrZqD9UuO-110" value="TurnController" style="shape=umlLifeline;perimeter=lifelinePerimeter;whiteSpace=wrap;html=1;container=1;dropTarget=0;collapsible=0;recursiveResize=0;outlineConnect=0;portConstraint=eastwest;newEdgeStyle={&quot;curved&quot;:0,&quot;rounded&quot;:0};" vertex="1" parent="1">
          <mxGeometry x="1200" y="75" width="100" height="1485" as="geometry" />
        </mxCell>
        <mxCell id="wpviFjfJTsvKrZqD9UuO-111" value="" style="html=1;points=[[0,0,0,0,5],[0,1,0,0,-5],[1,0,0,0,5],[1,1,0,0,-5]];perimeter=orthogonalPerimeter;outlineConnect=0;targetShapes=umlLifeline;portConstraint=eastwest;newEdgeStyle={&quot;curved&quot;:0,&quot;rounded&quot;:0};" vertex="1" parent="wpviFjfJTsvKrZqD9UuO-110">
          <mxGeometry x="45" y="505" width="10" height="65" as="geometry" />
        </mxCell>
        <mxCell id="wpviFjfJTsvKrZqD9UuO-113" value="" style="html=1;points=[[0,0,0,0,5],[0,1,0,0,-5],[1,0,0,0,5],[1,1,0,0,-5]];perimeter=orthogonalPerimeter;outlineConnect=0;targetShapes=umlLifeline;portConstraint=eastwest;newEdgeStyle={&quot;curved&quot;:0,&quot;rounded&quot;:0};" vertex="1" parent="wpviFjfJTsvKrZqD9UuO-110">
          <mxGeometry x="50" y="525" width="10" height="25" as="geometry" />
        </mxCell>
        <mxCell id="wpviFjfJTsvKrZqD9UuO-114" value="change turn" style="html=1;align=left;spacingLeft=2;endArrow=block;rounded=0;edgeStyle=orthogonalEdgeStyle;curved=0;rounded=0;" edge="1" parent="wpviFjfJTsvKrZqD9UuO-110" target="wpviFjfJTsvKrZqD9UuO-113">
          <mxGeometry relative="1" as="geometry">
            <mxPoint x="55" y="515" as="sourcePoint" />
            <Array as="points">
              <mxPoint x="85" y="515" />
              <mxPoint x="85" y="525" />
            </Array>
          </mxGeometry>
        </mxCell>
        <mxCell id="wpviFjfJTsvKrZqD9UuO-112" value="change turn" style="edgeStyle=orthogonalEdgeStyle;rounded=0;orthogonalLoop=1;jettySize=auto;html=1;curved=0;" edge="1" parent="1" source="wpviFjfJTsvKrZqD9UuO-8" target="wpviFjfJTsvKrZqD9UuO-48">
          <mxGeometry x="0.0988" y="10" relative="1" as="geometry">
            <Array as="points">
              <mxPoint x="510" y="580" />
              <mxPoint x="510" y="580" />
            </Array>
            <mxPoint as="offset" />
          </mxGeometry>
        </mxCell>
        <mxCell id="wpviFjfJTsvKrZqD9UuO-115" value="" style="html=1;align=left;spacingLeft=2;endArrow=block;rounded=0;edgeStyle=orthogonalEdgeStyle;curved=0;rounded=0;exitX=1;exitY=1;exitDx=0;exitDy=-5;exitPerimeter=0;dashed=1;" edge="1" parent="1" target="wpviFjfJTsvKrZqD9UuO-111">
          <mxGeometry relative="1" as="geometry">
            <mxPoint x="1255" y="640" as="sourcePoint" />
            <Array as="points">
              <mxPoint x="1255" y="620" />
              <mxPoint x="1265" y="620" />
              <mxPoint x="1265" y="630" />
            </Array>
            <mxPoint x="1250" y="655" as="targetPoint" />
          </mxGeometry>
        </mxCell>
        <mxCell id="wpviFjfJTsvKrZqD9UuO-116" style="edgeStyle=orthogonalEdgeStyle;rounded=0;orthogonalLoop=1;jettySize=auto;html=1;curved=0;dashed=1;" edge="1" parent="1" source="wpviFjfJTsvKrZqD9UuO-111" target="wpviFjfJTsvKrZqD9UuO-48">
          <mxGeometry relative="1" as="geometry">
            <Array as="points">
              <mxPoint x="760" y="640" />
              <mxPoint x="760" y="640" />
            </Array>
          </mxGeometry>
        </mxCell>
        <mxCell id="wpviFjfJTsvKrZqD9UuO-117" value="" style="html=1;points=[[0,0,0,0,5],[0,1,0,0,-5],[1,0,0,0,5],[1,1,0,0,-5]];perimeter=orthogonalPerimeter;outlineConnect=0;targetShapes=umlLifeline;portConstraint=eastwest;newEdgeStyle={&quot;curved&quot;:0,&quot;rounded&quot;:0};" vertex="1" parent="1">
          <mxGeometry x="290" y="680" width="10" height="40" as="geometry" />
        </mxCell>
        <mxCell id="wpviFjfJTsvKrZqD9UuO-118" value="update wait &lt;br&gt;turn screen" style="html=1;align=left;spacingLeft=2;endArrow=block;rounded=0;edgeStyle=orthogonalEdgeStyle;curved=0;rounded=0;" edge="1" parent="1" target="wpviFjfJTsvKrZqD9UuO-117">
          <mxGeometry x="0.1765" relative="1" as="geometry">
            <mxPoint x="295" y="660" as="sourcePoint" />
            <Array as="points">
              <mxPoint x="325" y="690" />
            </Array>
            <mxPoint as="offset" />
          </mxGeometry>
        </mxCell>
        <mxCell id="wpviFjfJTsvKrZqD9UuO-119" value="" style="html=1;align=left;spacingLeft=2;endArrow=block;rounded=0;edgeStyle=orthogonalEdgeStyle;curved=0;rounded=0;exitX=1;exitY=1;exitDx=0;exitDy=-5;exitPerimeter=0;dashed=1;" edge="1" parent="1">
          <mxGeometry relative="1" as="geometry">
            <mxPoint x="295" y="710" as="sourcePoint" />
            <Array as="points">
              <mxPoint x="305" y="710" />
              <mxPoint x="305" y="725" />
            </Array>
            <mxPoint x="290" y="725" as="targetPoint" />
          </mxGeometry>
        </mxCell>
        <mxCell id="wpviFjfJTsvKrZqD9UuO-123" value="" style="html=1;align=left;spacingLeft=2;endArrow=block;rounded=0;edgeStyle=orthogonalEdgeStyle;curved=0;rounded=0;exitX=1;exitY=1;exitDx=0;exitDy=-5;exitPerimeter=0;dashed=1;" edge="1" parent="1">
          <mxGeometry relative="1" as="geometry">
            <mxPoint x="1410" y="890" as="sourcePoint" />
            <Array as="points">
              <mxPoint x="1410" y="880" />
              <mxPoint x="1430" y="880" />
              <mxPoint x="1430" y="905" />
            </Array>
            <mxPoint x="1405" y="905" as="targetPoint" />
          </mxGeometry>
        </mxCell>
        <mxCell id="wpviFjfJTsvKrZqD9UuO-124" value="doesnt have" style="edgeStyle=orthogonalEdgeStyle;rounded=0;orthogonalLoop=1;jettySize=auto;html=1;curved=0;dashed=1;" edge="1" parent="1" source="wpviFjfJTsvKrZqD9UuO-105" target="wpviFjfJTsvKrZqD9UuO-102">
          <mxGeometry y="-10" relative="1" as="geometry">
            <Array as="points">
              <mxPoint x="980" y="920" />
              <mxPoint x="980" y="920" />
            </Array>
            <mxPoint as="offset" />
          </mxGeometry>
        </mxCell>
        <mxCell id="wpviFjfJTsvKrZqD9UuO-125" value="doesnt have" style="edgeStyle=orthogonalEdgeStyle;rounded=0;orthogonalLoop=1;jettySize=auto;html=1;curved=0;dashed=1;" edge="1" parent="1" source="wpviFjfJTsvKrZqD9UuO-102" target="wpviFjfJTsvKrZqD9UuO-88">
          <mxGeometry x="-0.0625" y="-10" relative="1" as="geometry">
            <Array as="points">
              <mxPoint x="510" y="930" />
              <mxPoint x="510" y="930" />
            </Array>
            <mxPoint as="offset" />
          </mxGeometry>
        </mxCell>
        <mxCell id="wpviFjfJTsvKrZqD9UuO-129" value="" style="endArrow=none;html=1;rounded=0;" edge="1" parent="1">
          <mxGeometry width="50" height="50" relative="1" as="geometry">
            <mxPoint x="10" y="1040" as="sourcePoint" />
            <mxPoint x="1463.729717548077" y="1040" as="targetPoint" />
          </mxGeometry>
        </mxCell>
        <mxCell id="wpviFjfJTsvKrZqD9UuO-130" value="[has]" style="text;align=center;fontStyle=1;verticalAlign=middle;spacingLeft=3;spacingRight=3;strokeColor=none;rotatable=0;points=[[0,0.5],[1,0.5]];portConstraint=eastwest;html=1;" vertex="1" parent="1">
          <mxGeometry x="140" y="1040" width="80" height="26" as="geometry" />
        </mxCell>
        <mxCell id="wpviFjfJTsvKrZqD9UuO-137" style="edgeStyle=orthogonalEdgeStyle;rounded=0;orthogonalLoop=1;jettySize=auto;html=1;curved=0;dashed=1;" edge="1" parent="1" source="wpviFjfJTsvKrZqD9UuO-131" target="wpviFjfJTsvKrZqD9UuO-88">
          <mxGeometry relative="1" as="geometry">
            <Array as="points">
              <mxPoint x="840" y="990" />
              <mxPoint x="840" y="990" />
            </Array>
          </mxGeometry>
        </mxCell>
        <mxCell id="wpviFjfJTsvKrZqD9UuO-131" value="" style="html=1;points=[[0,0,0,0,5],[0,1,0,0,-5],[1,0,0,0,5],[1,1,0,0,-5]];perimeter=orthogonalPerimeter;outlineConnect=0;targetShapes=umlLifeline;portConstraint=eastwest;newEdgeStyle={&quot;curved&quot;:0,&quot;rounded&quot;:0};" vertex="1" parent="1">
          <mxGeometry x="1245" y="940" width="10" height="90" as="geometry" />
        </mxCell>
        <mxCell id="wpviFjfJTsvKrZqD9UuO-132" value="" style="html=1;points=[[0,0,0,0,5],[0,1,0,0,-5],[1,0,0,0,5],[1,1,0,0,-5]];perimeter=orthogonalPerimeter;outlineConnect=0;targetShapes=umlLifeline;portConstraint=eastwest;newEdgeStyle={&quot;curved&quot;:0,&quot;rounded&quot;:0};" vertex="1" parent="1">
          <mxGeometry x="1250" y="960" width="10" height="25" as="geometry" />
        </mxCell>
        <mxCell id="wpviFjfJTsvKrZqD9UuO-133" value="change turn" style="html=1;align=left;spacingLeft=2;endArrow=block;rounded=0;edgeStyle=orthogonalEdgeStyle;curved=0;rounded=0;" edge="1" parent="1" target="wpviFjfJTsvKrZqD9UuO-132">
          <mxGeometry relative="1" as="geometry">
            <mxPoint x="1255" y="950" as="sourcePoint" />
            <Array as="points">
              <mxPoint x="1285" y="950" />
              <mxPoint x="1285" y="960" />
            </Array>
          </mxGeometry>
        </mxCell>
        <mxCell id="wpviFjfJTsvKrZqD9UuO-134" value="change turn" style="edgeStyle=orthogonalEdgeStyle;rounded=0;orthogonalLoop=1;jettySize=auto;html=1;curved=0;" edge="1" parent="1" target="wpviFjfJTsvKrZqD9UuO-102">
          <mxGeometry x="0.0988" y="10" relative="1" as="geometry">
            <mxPoint x="435" y="950" as="sourcePoint" />
            <Array as="points">
              <mxPoint x="516" y="951" />
            </Array>
            <mxPoint as="offset" />
          </mxGeometry>
        </mxCell>
        <mxCell id="wpviFjfJTsvKrZqD9UuO-135" value="" style="html=1;align=left;spacingLeft=2;endArrow=block;rounded=0;edgeStyle=orthogonalEdgeStyle;curved=0;rounded=0;exitX=1;exitY=1;exitDx=0;exitDy=-5;exitPerimeter=0;dashed=1;" edge="1" parent="1" target="wpviFjfJTsvKrZqD9UuO-131">
          <mxGeometry relative="1" as="geometry">
            <mxPoint x="1255" y="1000" as="sourcePoint" />
            <Array as="points">
              <mxPoint x="1255" y="980" />
              <mxPoint x="1265" y="980" />
              <mxPoint x="1265" y="990" />
            </Array>
            <mxPoint x="1250" y="1015" as="targetPoint" />
          </mxGeometry>
        </mxCell>
        <mxCell id="wpviFjfJTsvKrZqD9UuO-138" style="edgeStyle=orthogonalEdgeStyle;rounded=0;orthogonalLoop=1;jettySize=auto;html=1;curved=0;dashed=1;" edge="1" parent="1" source="wpviFjfJTsvKrZqD9UuO-88" target="wpviFjfJTsvKrZqD9UuO-83">
          <mxGeometry relative="1" as="geometry">
            <Array as="points">
              <mxPoint x="360" y="1000" />
              <mxPoint x="360" y="1000" />
            </Array>
          </mxGeometry>
        </mxCell>
        <mxCell id="wpviFjfJTsvKrZqD9UuO-139" value="doesnt have" style="edgeLabel;html=1;align=center;verticalAlign=middle;resizable=0;points=[];" connectable="0" vertex="1" parent="wpviFjfJTsvKrZqD9UuO-138">
          <mxGeometry x="-0.5856" relative="1" as="geometry">
            <mxPoint x="-38" y="-10" as="offset" />
          </mxGeometry>
        </mxCell>
        <mxCell id="wpviFjfJTsvKrZqD9UuO-140" style="edgeStyle=orthogonalEdgeStyle;rounded=0;orthogonalLoop=1;jettySize=auto;html=1;curved=0;dashed=1;" edge="1" parent="1" source="wpviFjfJTsvKrZqD9UuO-83" target="wpviFjfJTsvKrZqD9UuO-81">
          <mxGeometry relative="1" as="geometry">
            <Array as="points">
              <mxPoint x="210" y="1020" />
              <mxPoint x="210" y="1020" />
            </Array>
          </mxGeometry>
        </mxCell>
        <mxCell id="wpviFjfJTsvKrZqD9UuO-142" value="doesnt have" style="edgeLabel;html=1;align=center;verticalAlign=middle;resizable=0;points=[];" connectable="0" vertex="1" parent="wpviFjfJTsvKrZqD9UuO-140">
          <mxGeometry x="0.0782" y="-5" relative="1" as="geometry">
            <mxPoint x="2" y="-10" as="offset" />
          </mxGeometry>
        </mxCell>
        <mxCell id="wpviFjfJTsvKrZqD9UuO-143" value="has" style="edgeStyle=orthogonalEdgeStyle;rounded=0;orthogonalLoop=1;jettySize=auto;html=1;curved=0;dashed=1;" edge="1" parent="1" source="wpviFjfJTsvKrZqD9UuO-105" target="wpviFjfJTsvKrZqD9UuO-102">
          <mxGeometry y="-7" relative="1" as="geometry">
            <Array as="points">
              <mxPoint x="1200" y="1055" />
              <mxPoint x="1200" y="1055" />
            </Array>
            <mxPoint y="-1" as="offset" />
          </mxGeometry>
        </mxCell>
        <mxCell id="wpviFjfJTsvKrZqD9UuO-144" value="change turn" style="edgeStyle=orthogonalEdgeStyle;rounded=0;orthogonalLoop=1;jettySize=auto;html=1;curved=0;entryX=0;entryY=0;entryDx=0;entryDy=5;entryPerimeter=0;" edge="1" parent="1" source="wpviFjfJTsvKrZqD9UuO-102" target="wpviFjfJTsvKrZqD9UuO-131">
          <mxGeometry x="0.0988" y="10" relative="1" as="geometry">
            <mxPoint x="610" y="960" as="sourcePoint" />
            <Array as="points">
              <mxPoint x="691" y="961" />
              <mxPoint x="691" y="945" />
            </Array>
            <mxPoint as="offset" />
            <mxPoint x="770" y="960" as="targetPoint" />
          </mxGeometry>
        </mxCell>
        <mxCell id="wpviFjfJTsvKrZqD9UuO-145" style="edgeStyle=orthogonalEdgeStyle;rounded=0;orthogonalLoop=1;jettySize=auto;html=1;curved=0;dashed=1;" edge="1" parent="1" source="wpviFjfJTsvKrZqD9UuO-102" target="wpviFjfJTsvKrZqD9UuO-88">
          <mxGeometry relative="1" as="geometry">
            <Array as="points">
              <mxPoint x="510" y="1070" />
              <mxPoint x="510" y="1070" />
            </Array>
          </mxGeometry>
        </mxCell>
        <mxCell id="wpviFjfJTsvKrZqD9UuO-146" value="has" style="edgeLabel;html=1;align=center;verticalAlign=middle;resizable=0;points=[];" connectable="0" vertex="1" parent="wpviFjfJTsvKrZqD9UuO-145">
          <mxGeometry x="-0.2376" y="-3" relative="1" as="geometry">
            <mxPoint x="-24" y="-7" as="offset" />
          </mxGeometry>
        </mxCell>
        <mxCell id="wpviFjfJTsvKrZqD9UuO-158" value="" style="html=1;points=[[0,0,0,0,5],[0,1,0,0,-5],[1,0,0,0,5],[1,1,0,0,-5]];perimeter=orthogonalPerimeter;outlineConnect=0;targetShapes=umlLifeline;portConstraint=eastwest;newEdgeStyle={&quot;curved&quot;:0,&quot;rounded&quot;:0};" vertex="1" parent="1">
          <mxGeometry x="1070" y="1260" width="10" height="110" as="geometry" />
        </mxCell>
        <mxCell id="wpviFjfJTsvKrZqD9UuO-159" value="" style="html=1;points=[[0,0,0,0,5],[0,1,0,0,-5],[1,0,0,0,5],[1,1,0,0,-5]];perimeter=orthogonalPerimeter;outlineConnect=0;targetShapes=umlLifeline;portConstraint=eastwest;newEdgeStyle={&quot;curved&quot;:0,&quot;rounded&quot;:0};" vertex="1" parent="1">
          <mxGeometry x="1074" y="1295" width="10" height="40" as="geometry" />
        </mxCell>
        <mxCell id="wpviFjfJTsvKrZqD9UuO-160" value="paint dominotale" style="html=1;align=left;spacingLeft=2;endArrow=block;rounded=0;edgeStyle=orthogonalEdgeStyle;curved=0;rounded=0;" edge="1" parent="1" target="wpviFjfJTsvKrZqD9UuO-159">
          <mxGeometry relative="1" as="geometry">
            <mxPoint x="1079" y="1275" as="sourcePoint" />
            <Array as="points">
              <mxPoint x="1109" y="1305" />
            </Array>
          </mxGeometry>
        </mxCell>
        <mxCell id="wpviFjfJTsvKrZqD9UuO-161" value="" style="html=1;align=left;spacingLeft=2;endArrow=block;rounded=0;edgeStyle=orthogonalEdgeStyle;curved=0;rounded=0;exitX=1;exitY=1;exitDx=0;exitDy=-5;exitPerimeter=0;dashed=1;" edge="1" parent="1">
          <mxGeometry relative="1" as="geometry">
            <mxPoint x="1084" y="1330" as="sourcePoint" />
            <Array as="points">
              <mxPoint x="1094" y="1330" />
              <mxPoint x="1094" y="1345" />
            </Array>
            <mxPoint x="1079" y="1345" as="targetPoint" />
          </mxGeometry>
        </mxCell>
        <mxCell id="wpviFjfJTsvKrZqD9UuO-162" value="paint domino on player" style="edgeStyle=orthogonalEdgeStyle;rounded=0;orthogonalLoop=1;jettySize=auto;html=1;curved=0;" edge="1" parent="1">
          <mxGeometry x="0.0625" y="10" relative="1" as="geometry">
            <mxPoint x="440" y="1240" as="sourcePoint" />
            <mxPoint x="600" y="1240" as="targetPoint" />
            <Array as="points">
              <mxPoint x="515" y="1240" />
              <mxPoint x="515" y="1240" />
            </Array>
            <mxPoint as="offset" />
          </mxGeometry>
        </mxCell>
        <mxCell id="wpviFjfJTsvKrZqD9UuO-163" value="paint domino on player" style="edgeStyle=orthogonalEdgeStyle;rounded=0;orthogonalLoop=1;jettySize=auto;html=1;curved=0;" edge="1" parent="1" target="wpviFjfJTsvKrZqD9UuO-174">
          <mxGeometry x="0.0625" y="10" relative="1" as="geometry">
            <mxPoint x="610" y="1250" as="sourcePoint" />
            <mxPoint x="770" y="1250" as="targetPoint" />
            <Array as="points">
              <mxPoint x="768" y="1251" />
            </Array>
            <mxPoint as="offset" />
          </mxGeometry>
        </mxCell>
        <mxCell id="wpviFjfJTsvKrZqD9UuO-164" value="paint dominotale" style="edgeStyle=orthogonalEdgeStyle;rounded=0;orthogonalLoop=1;jettySize=auto;html=1;curved=0;" edge="1" parent="1" source="wpviFjfJTsvKrZqD9UuO-174" target="wpviFjfJTsvKrZqD9UuO-158">
          <mxGeometry x="-0.3448" y="10" relative="1" as="geometry">
            <mxPoint x="780" y="1260" as="sourcePoint" />
            <Array as="points">
              <mxPoint x="1040" y="1260" />
              <mxPoint x="1040" y="1260" />
            </Array>
            <mxPoint as="offset" />
          </mxGeometry>
        </mxCell>
        <mxCell id="wpviFjfJTsvKrZqD9UuO-165" style="edgeStyle=orthogonalEdgeStyle;rounded=0;orthogonalLoop=1;jettySize=auto;html=1;curved=0;dashed=1;" edge="1" parent="1" source="wpviFjfJTsvKrZqD9UuO-158" target="wpviFjfJTsvKrZqD9UuO-174">
          <mxGeometry relative="1" as="geometry">
            <mxPoint x="780" y="1350" as="targetPoint" />
            <Array as="points">
              <mxPoint x="1000" y="1350" />
              <mxPoint x="1000" y="1350" />
            </Array>
          </mxGeometry>
        </mxCell>
        <mxCell id="wpviFjfJTsvKrZqD9UuO-166" style="edgeStyle=orthogonalEdgeStyle;rounded=0;orthogonalLoop=1;jettySize=auto;html=1;curved=0;dashed=1;" edge="1" parent="1" source="wpviFjfJTsvKrZqD9UuO-174" target="wpviFjfJTsvKrZqD9UuO-102">
          <mxGeometry relative="1" as="geometry">
            <mxPoint x="770" y="1360" as="sourcePoint" />
            <mxPoint x="610" y="1360" as="targetPoint" />
            <Array as="points">
              <mxPoint x="800" y="1360" />
              <mxPoint x="800" y="1360" />
            </Array>
          </mxGeometry>
        </mxCell>
        <mxCell id="wpviFjfJTsvKrZqD9UuO-167" style="edgeStyle=orthogonalEdgeStyle;rounded=0;orthogonalLoop=1;jettySize=auto;html=1;curved=0;dashed=1;" edge="1" parent="1" target="wpviFjfJTsvKrZqD9UuO-88">
          <mxGeometry relative="1" as="geometry">
            <mxPoint x="600" y="1370" as="sourcePoint" />
            <mxPoint x="440" y="1370" as="targetPoint" />
            <Array as="points">
              <mxPoint x="518" y="1371" />
            </Array>
          </mxGeometry>
        </mxCell>
        <mxCell id="wpviFjfJTsvKrZqD9UuO-174" value="" style="html=1;points=[[0,0,0,0,5],[0,1,0,0,-5],[1,0,0,0,5],[1,1,0,0,-5]];perimeter=orthogonalPerimeter;outlineConnect=0;targetShapes=umlLifeline;portConstraint=eastwest;newEdgeStyle={&quot;curved&quot;:0,&quot;rounded&quot;:0};" vertex="1" parent="1">
          <mxGeometry x="925" y="1247" width="10" height="113" as="geometry" />
        </mxCell>
        <mxCell id="wpviFjfJTsvKrZqD9UuO-175" style="edgeStyle=orthogonalEdgeStyle;rounded=0;orthogonalLoop=1;jettySize=auto;html=1;curved=0;dashed=1;" edge="1" parent="1" source="wpviFjfJTsvKrZqD9UuO-88" target="wpviFjfJTsvKrZqD9UuO-83">
          <mxGeometry relative="1" as="geometry">
            <Array as="points">
              <mxPoint x="360" y="1400" />
              <mxPoint x="360" y="1400" />
            </Array>
          </mxGeometry>
        </mxCell>
        <mxCell id="wpviFjfJTsvKrZqD9UuO-176" value="" style="html=1;points=[[0,0,0,0,5],[0,1,0,0,-5],[1,0,0,0,5],[1,1,0,0,-5]];perimeter=orthogonalPerimeter;outlineConnect=0;targetShapes=umlLifeline;portConstraint=eastwest;newEdgeStyle={&quot;curved&quot;:0,&quot;rounded&quot;:0};" vertex="1" parent="1">
          <mxGeometry x="1400" y="1150" width="10" height="40" as="geometry" />
        </mxCell>
        <mxCell id="wpviFjfJTsvKrZqD9UuO-177" value="pop a dominotale from pool" style="html=1;align=left;spacingLeft=2;endArrow=block;rounded=0;edgeStyle=orthogonalEdgeStyle;curved=0;rounded=0;" edge="1" parent="1" target="wpviFjfJTsvKrZqD9UuO-176">
          <mxGeometry relative="1" as="geometry">
            <mxPoint x="1405" y="1130" as="sourcePoint" />
            <Array as="points">
              <mxPoint x="1435" y="1160" />
            </Array>
          </mxGeometry>
        </mxCell>
        <mxCell id="wpviFjfJTsvKrZqD9UuO-178" value="" style="html=1;align=left;spacingLeft=2;endArrow=block;rounded=0;edgeStyle=orthogonalEdgeStyle;curved=0;rounded=0;exitX=1;exitY=1;exitDx=0;exitDy=-5;exitPerimeter=0;dashed=1;" edge="1" parent="1">
          <mxGeometry relative="1" as="geometry">
            <mxPoint x="1410" y="1184" as="sourcePoint" />
            <Array as="points">
              <mxPoint x="1440" y="1184" />
              <mxPoint x="1440" y="1199" />
            </Array>
            <mxPoint x="1405" y="1199" as="targetPoint" />
          </mxGeometry>
        </mxCell>
        <mxCell id="wpviFjfJTsvKrZqD9UuO-180" value="change turn" style="edgeStyle=orthogonalEdgeStyle;rounded=0;orthogonalLoop=1;jettySize=auto;html=1;curved=0;" edge="1" parent="1" target="wpviFjfJTsvKrZqD9UuO-111">
          <mxGeometry x="0.0988" y="10" relative="1" as="geometry">
            <mxPoint x="610" y="585" as="sourcePoint" />
            <mxPoint x="770" y="585" as="targetPoint" />
            <Array as="points">
              <mxPoint x="928" y="586" />
              <mxPoint x="928" y="590" />
            </Array>
            <mxPoint as="offset" />
          </mxGeometry>
        </mxCell>
        <mxCell id="wpviFjfJTsvKrZqD9UuO-183" style="edgeStyle=orthogonalEdgeStyle;rounded=0;orthogonalLoop=1;jettySize=auto;html=1;curved=0;dashed=1;" edge="1" parent="1" source="wpviFjfJTsvKrZqD9UuO-83" target="wpviFjfJTsvKrZqD9UuO-81">
          <mxGeometry relative="1" as="geometry">
            <Array as="points">
              <mxPoint x="190" y="1420" />
              <mxPoint x="190" y="1420" />
            </Array>
          </mxGeometry>
        </mxCell>
      </root>
    </mxGraphModel>
  </diagram>
</mxfile>
